<?xml version="1.0" encoding="utf-8"?>
<!-- Generator: Adobe Illustrator 26.2.1, SVG Export Plug-In . SVG Version: 6.00 Build 0)  -->
<svg version="1.1" id="Layer_1" xmlns="http://www.w3.org/2000/svg" xmlns:xlink="http://www.w3.org/1999/xlink" x="0px" y="0px"
	 viewBox="0 0 900 270" style="enable-background:new 0 0 900 270;" xml:space="preserve">
<style type="text/css">
	.st0{fill:none;}
	.st1{fill:none;stroke:#AFAFAF;stroke-width:0.3;stroke-linejoin:round;}
	.st2{fill:none;stroke:#434343;stroke-width:0.3;stroke-linecap:square;}
	.st3{fill:none;stroke:#FFFFFF;stroke-width:2;stroke-miterlimit:10;}
	.st4{fill:url(#SVGID_1_);}
	.st5{fill:url(#SVGID_00000084529360664435710130000014633769635282268819_);}
	.st6{fill:none;stroke:#EFC477;stroke-width:3;stroke-miterlimit:10;}
	.st7{fill:#FFFFFF;}
	.st8{fill:url(#SVGID_00000149360217477009641560000010405293298443525022_);}
	.st9{fill:#B3B3B3;}
	.st10{fill:url(#path3011_00000045578482674478656930000016225545680033799605_);}
	.st11{opacity:0.4959;fill:#1A1A1A;enable-background:new    ;}
	.st12{opacity:0.5369;fill:#1A1A1A;enable-background:new    ;}
	.st13{opacity:0.4959;fill:url(#path4004_00000183244614219270056750000011014418879750403721_);enable-background:new    ;}
	.st14{opacity:0.5369;fill:url(#path4006_00000019648597096864587350000007883649627886504592_);enable-background:new    ;}
	.st15{fill:url(#path3039_00000008842464253331435220000003593906220972905636_);}
	.st16{fill:#4D4D4D;}
	.st17{fill:url(#path3858_00000180340226504458840340000016927162321021472148_);}
	.st18{fill:url(#path3900_00000152241962761364395780000016863792830135922087_);}
	.st19{fill:#CCCCCC;}
	.st20{fill:url(#path3838_00000098204684004584710290000000912557417652728455_);}
	.st21{fill:url(#path3904_00000019680364441881897930000012113770079197010878_);}
	.st22{fill:#D4AA00;}
	.st23{fill:url(#path3021_00000007392326319002326650000011104562650710168716_);}
	.st24{fill:url(#path3872_00000133508359144814169330000015456956647896388011_);}
	.st25{fill:url(#path3970_00000048489984835645603840000008811810917221503150_);}
	.st26{fill:url(#path3972_00000006682175502752908670000012658128045571057844_);}
	.st27{fill:url(#path4384_00000013896968499640431760000007970393766827815041_);}
	.st28{fill:url(#path4408_00000114762219852965114630000010422223176932168840_);}
	.st29{fill:url(#path4536_00000182493703466863396080000014414687723635676314_);}
	.st30{fill:url(#path4549_00000120545357206862624120000010791374883964111242_);}
	.st31{fill:url(#path4551_00000165930254682591827460000010937452705014384040_);}
	.st32{fill:url(#path4553_00000082350303399971209010000005353060222851120034_);}
	.st33{opacity:0.8156;fill:url(#path3916_00000064340847756206432830000013512534646210333590_);enable-background:new    ;}
	.st34{fill:url(#path4699_00000023983836547686947210000008206489420054090927_);}
</style>
<pattern  width="72" height="72" patternUnits="userSpaceOnUse" id="Diagonal_Lines" viewBox="79.6 -148.6 72 72" style="overflow:visible;">
	<g>
		<rect x="79.6" y="-148.6" class="st0" width="72" height="72"/>
		<g>
			<line class="st1" x1="144.1" y1="-66.1" x2="162.1" y2="-84.1"/>
			<line class="st1" x1="144.1" y1="-60.1" x2="168.1" y2="-84.1"/>
			<line class="st1" x1="144.1" y1="-54.1" x2="174.1" y2="-84.1"/>
			<line class="st1" x1="144.1" y1="-48.1" x2="180.1" y2="-84.1"/>
			<line class="st1" x1="144.1" y1="-42.1" x2="186.1" y2="-84.1"/>
			<line class="st1" x1="144.1" y1="-36.1" x2="192.1" y2="-84.1"/>
			<line class="st1" x1="144.1" y1="-30.1" x2="198.1" y2="-84.1"/>
			<line class="st1" x1="144.1" y1="-24.1" x2="204.1" y2="-84.1"/>
			<line class="st1" x1="144.1" y1="-18.1" x2="210.1" y2="-84.1"/>
			<line class="st1" x1="144.1" y1="-12.1" x2="216.1" y2="-84.1"/>
			<line class="st1" x1="144.1" y1="-6.1" x2="222.1" y2="-84.1"/>
			<line class="st1" x1="144.1" y1="-0.1" x2="228.1" y2="-84.1"/>
			<line class="st1" x1="150.1" y1="-0.1" x2="228.1" y2="-78.1"/>
		</g>
		<g>
			<line class="st1" x1="72.1" y1="-66.1" x2="90.1" y2="-84.1"/>
			<line class="st1" x1="72.1" y1="-60.1" x2="96.1" y2="-84.1"/>
			<line class="st1" x1="72.1" y1="-54.1" x2="102.1" y2="-84.1"/>
			<line class="st1" x1="72.1" y1="-48.1" x2="108.1" y2="-84.1"/>
			<line class="st1" x1="72.1" y1="-42.1" x2="114.1" y2="-84.1"/>
			<line class="st1" x1="72.1" y1="-36.1" x2="120.1" y2="-84.1"/>
			<line class="st1" x1="72.1" y1="-30.1" x2="126.1" y2="-84.1"/>
			<line class="st1" x1="72.1" y1="-24.1" x2="132.1" y2="-84.1"/>
			<line class="st1" x1="72.1" y1="-18.1" x2="138.1" y2="-84.1"/>
			<line class="st1" x1="72.1" y1="-12.1" x2="144.1" y2="-84.1"/>
			<line class="st1" x1="72.1" y1="-6.1" x2="150.1" y2="-84.1"/>
			<line class="st1" x1="72.1" y1="-0.1" x2="156.1" y2="-84.1"/>
			<line class="st1" x1="78.1" y1="-0.1" x2="156.1" y2="-78.1"/>
		</g>
		<g>
			<line class="st1" x1="0.1" y1="-0.1" x2="84.1" y2="-84.1"/>
			<line class="st1" x1="6.1" y1="-0.1" x2="84.1" y2="-78.1"/>
		</g>
		<g>
			<line class="st1" x1="144.1" y1="-138.1" x2="162.1" y2="-156.1"/>
			<line class="st1" x1="144.1" y1="-132.1" x2="168.1" y2="-156.1"/>
			<line class="st1" x1="144.1" y1="-126.1" x2="174.1" y2="-156.1"/>
			<line class="st1" x1="144.1" y1="-120.1" x2="180.1" y2="-156.1"/>
			<line class="st1" x1="144.1" y1="-114.1" x2="186.1" y2="-156.1"/>
			<line class="st1" x1="144.1" y1="-108.1" x2="192.1" y2="-156.1"/>
			<line class="st1" x1="144.1" y1="-102.1" x2="198.1" y2="-156.1"/>
			<line class="st1" x1="144.1" y1="-96.1" x2="204.1" y2="-156.1"/>
			<line class="st1" x1="144.1" y1="-90.1" x2="210.1" y2="-156.1"/>
			<line class="st1" x1="144.1" y1="-84.1" x2="216.1" y2="-156.1"/>
			<line class="st1" x1="144.1" y1="-78.1" x2="222.1" y2="-156.1"/>
			<line class="st1" x1="144.1" y1="-72.1" x2="228.1" y2="-156.1"/>
			<line class="st1" x1="150.1" y1="-72.1" x2="228.1" y2="-150.1"/>
		</g>
		<g>
			<line class="st1" x1="72.1" y1="-138.1" x2="90.1" y2="-156.1"/>
			<line class="st1" x1="72.1" y1="-132.1" x2="96.1" y2="-156.1"/>
			<line class="st1" x1="72.1" y1="-126.1" x2="102.1" y2="-156.1"/>
			<line class="st1" x1="72.1" y1="-120.1" x2="108.1" y2="-156.1"/>
			<line class="st1" x1="72.1" y1="-114.1" x2="114.1" y2="-156.1"/>
			<line class="st1" x1="72.1" y1="-108.1" x2="120.1" y2="-156.1"/>
			<line class="st1" x1="72.1" y1="-102.1" x2="126.1" y2="-156.1"/>
			<line class="st1" x1="72.1" y1="-96.1" x2="132.1" y2="-156.1"/>
			<line class="st1" x1="72.1" y1="-90.1" x2="138.1" y2="-156.1"/>
			<line class="st1" x1="72.1" y1="-84.1" x2="144.1" y2="-156.1"/>
			<line class="st1" x1="72.1" y1="-78.1" x2="150.1" y2="-156.1"/>
			<line class="st1" x1="72.1" y1="-72.1" x2="156.1" y2="-156.1"/>
			<line class="st1" x1="78.1" y1="-72.1" x2="156.1" y2="-150.1"/>
			<line class="st1" x1="84.1" y1="-72.1" x2="156.1" y2="-144.1"/>
			<line class="st1" x1="90.1" y1="-72.1" x2="156.1" y2="-138.1"/>
			<line class="st1" x1="96.1" y1="-72.1" x2="156.1" y2="-132.1"/>
			<line class="st1" x1="102.1" y1="-72.1" x2="156.1" y2="-126.1"/>
			<line class="st1" x1="108.1" y1="-72.1" x2="156.1" y2="-120.1"/>
			<line class="st1" x1="114.1" y1="-72.1" x2="156.1" y2="-114.1"/>
			<line class="st1" x1="120.1" y1="-72.1" x2="156.1" y2="-108.1"/>
			<line class="st1" x1="126.1" y1="-72.1" x2="156.1" y2="-102.1"/>
			<line class="st1" x1="132.1" y1="-72.1" x2="156.1" y2="-96.1"/>
			<line class="st1" x1="138.1" y1="-72.1" x2="156.1" y2="-90.1"/>
			<line class="st1" x1="144.1" y1="-72.1" x2="156.1" y2="-84.1"/>
		</g>
		<g>
			<line class="st1" x1="0.1" y1="-72.1" x2="84.1" y2="-156.1"/>
			<line class="st1" x1="6.1" y1="-72.1" x2="84.1" y2="-150.1"/>
			<line class="st1" x1="12.1" y1="-72.1" x2="84.1" y2="-144.1"/>
			<line class="st1" x1="18.1" y1="-72.1" x2="84.1" y2="-138.1"/>
			<line class="st1" x1="24.1" y1="-72.1" x2="84.1" y2="-132.1"/>
			<line class="st1" x1="30.1" y1="-72.1" x2="84.1" y2="-126.1"/>
			<line class="st1" x1="36.1" y1="-72.1" x2="84.1" y2="-120.1"/>
			<line class="st1" x1="42.1" y1="-72.1" x2="84.1" y2="-114.1"/>
			<line class="st1" x1="48.1" y1="-72.1" x2="84.1" y2="-108.1"/>
			<line class="st1" x1="54.1" y1="-72.1" x2="84.1" y2="-102.1"/>
			<line class="st1" x1="60.1" y1="-72.1" x2="84.1" y2="-96.1"/>
			<line class="st1" x1="66.1" y1="-72.1" x2="84.1" y2="-90.1"/>
			<line class="st1" x1="72.1" y1="-72.1" x2="84.1" y2="-84.1"/>
		</g>
		<g>
			<line class="st1" x1="144.1" y1="-144.1" x2="228.1" y2="-228.1"/>
			<line class="st1" x1="150.1" y1="-144.1" x2="228.1" y2="-222.1"/>
		</g>
		<g>
			<line class="st1" x1="72.1" y1="-144.1" x2="156.1" y2="-228.1"/>
			<line class="st1" x1="78.1" y1="-144.1" x2="156.1" y2="-222.1"/>
			<line class="st1" x1="84.1" y1="-144.1" x2="156.1" y2="-216.1"/>
			<line class="st1" x1="90.1" y1="-144.1" x2="156.1" y2="-210.1"/>
			<line class="st1" x1="96.1" y1="-144.1" x2="156.1" y2="-204.1"/>
			<line class="st1" x1="102.1" y1="-144.1" x2="156.1" y2="-198.1"/>
			<line class="st1" x1="108.1" y1="-144.1" x2="156.1" y2="-192.1"/>
			<line class="st1" x1="114.1" y1="-144.1" x2="156.1" y2="-186.1"/>
			<line class="st1" x1="120.1" y1="-144.1" x2="156.1" y2="-180.1"/>
			<line class="st1" x1="126.1" y1="-144.1" x2="156.1" y2="-174.1"/>
			<line class="st1" x1="132.1" y1="-144.1" x2="156.1" y2="-168.1"/>
			<line class="st1" x1="138.1" y1="-144.1" x2="156.1" y2="-162.1"/>
			<line class="st1" x1="144.1" y1="-144.1" x2="156.1" y2="-156.1"/>
		</g>
		<g>
			<line class="st1" x1="0.1" y1="-144.1" x2="84.1" y2="-228.1"/>
			<line class="st1" x1="6.1" y1="-144.1" x2="84.1" y2="-222.1"/>
			<line class="st1" x1="12.1" y1="-144.1" x2="84.1" y2="-216.1"/>
			<line class="st1" x1="18.1" y1="-144.1" x2="84.1" y2="-210.1"/>
			<line class="st1" x1="24.1" y1="-144.1" x2="84.1" y2="-204.1"/>
			<line class="st1" x1="30.1" y1="-144.1" x2="84.1" y2="-198.1"/>
			<line class="st1" x1="36.1" y1="-144.1" x2="84.1" y2="-192.1"/>
			<line class="st1" x1="42.1" y1="-144.1" x2="84.1" y2="-186.1"/>
			<line class="st1" x1="48.1" y1="-144.1" x2="84.1" y2="-180.1"/>
			<line class="st1" x1="54.1" y1="-144.1" x2="84.1" y2="-174.1"/>
			<line class="st1" x1="60.1" y1="-144.1" x2="84.1" y2="-168.1"/>
			<line class="st1" x1="66.1" y1="-144.1" x2="84.1" y2="-162.1"/>
			<line class="st1" x1="72.1" y1="-144.1" x2="84.1" y2="-156.1"/>
		</g>
	</g>
</pattern>
<pattern  width="72" height="72" patternUnits="userSpaceOnUse" id="Lines" viewBox="29.7 -73.8 72 72" style="overflow:visible;">
	<g>
		<rect x="29.7" y="-73.8" class="st0" width="72" height="72"/>
		<g>
			<line class="st2" x1="59.2" y1="-0.2" x2="59.2" y2="-3.7"/>
		</g>
		<g>
			<line class="st2" x1="100.7" y1="-64.2" x2="123.4" y2="-64.2"/>
			<line class="st2" x1="107.9" y1="-59.9" x2="100.7" y2="-59.9"/>
			<line class="st2" x1="100.7" y1="-48.4" x2="124.7" y2="-48.4"/>
			<line class="st2" x1="100.7" y1="-39.2" x2="131.4" y2="-39.2"/>
			<line class="st2" x1="100.7" y1="-23.4" x2="132.6" y2="-23.4"/>
			<line class="st2" x1="100.7" y1="-14.7" x2="103.4" y2="-14.7"/>
			<line class="st2" x1="100.7" y1="-20.4" x2="137.4" y2="-20.4"/>
			<line class="st2" x1="110.9" y1="-31.9" x2="100.7" y2="-31.9"/>
			<line class="st2" x1="100.7" y1="-7.4" x2="110.9" y2="-7.4"/>
			<line class="st2" x1="100.7" y1="-10.4" x2="124.9" y2="-10.4"/>
		</g>
		<g>
			<line class="st2" x1="28.7" y1="-64.2" x2="51.4" y2="-64.2"/>
			<line class="st2" x1="41.7" y1="-69.9" x2="85.4" y2="-69.9"/>
			<line class="st2" x1="45.9" y1="-64.2" x2="45.9" y2="-69.9"/>
			<line class="st2" x1="64.2" y1="-68.2" x2="95.7" y2="-68.2"/>
			<line class="st2" x1="50.2" y1="-66.4" x2="89.7" y2="-66.4"/>
			<line class="st2" x1="78.7" y1="-56.9" x2="98.9" y2="-56.9"/>
			<line class="st2" x1="91.9" y1="-56.9" x2="91.9" y2="-60.4"/>
			<line class="st2" x1="100.4" y1="-59.9" x2="94.2" y2="-59.9"/>
			<line class="st2" x1="35.9" y1="-59.9" x2="28.7" y2="-59.9"/>
			<line class="st2" x1="34.7" y1="-56.9" x2="58.9" y2="-56.9"/>
			<line class="st2" x1="67.9" y1="-64.2" x2="100.9" y2="-64.2"/>
			<line class="st2" x1="48.7" y1="-59.9" x2="72.9" y2="-59.9"/>
			<line class="st2" x1="81.2" y1="-51.7" x2="102.7" y2="-51.7"/>
			<line class="st2" x1="80.9" y1="-50.4" x2="102.7" y2="-50.4"/>
			<line class="st2" x1="36.9" y1="-51.7" x2="55.7" y2="-51.7"/>
			<line class="st2" x1="36.7" y1="-50.4" x2="49.2" y2="-50.4"/>
			<line class="st2" x1="51.4" y1="-54.7" x2="75.7" y2="-54.7"/>
			<line class="st2" x1="63.2" y1="-48.4" x2="83.4" y2="-48.4"/>
			<line class="st2" x1="76.4" y1="-48.4" x2="76.4" y2="-51.9"/>
			<line class="st2" x1="28.7" y1="-48.4" x2="52.7" y2="-48.4"/>
			<line class="st2" x1="33.7" y1="-48.4" x2="33.7" y2="-51.9"/>
			<line class="st2" x1="87.7" y1="-48.4" x2="100.1" y2="-48.4"/>
			<line class="st2" x1="59.4" y1="-51.7" x2="63.2" y2="-51.7"/>
			<line class="st2" x1="28.7" y1="-39.2" x2="59.4" y2="-39.2"/>
			<line class="st2" x1="49.7" y1="-44.9" x2="93.4" y2="-44.9"/>
			<line class="st2" x1="53.9" y1="-39.2" x2="53.9" y2="-44.9"/>
			<line class="st2" x1="72.2" y1="-43.2" x2="102.7" y2="-43.2"/>
			<line class="st2" x1="58.2" y1="-41.4" x2="97.7" y2="-41.4"/>
			<line class="st2" x1="86.7" y1="-31.9" x2="102.7" y2="-31.9"/>
			<line class="st2" x1="99.9" y1="-31.9" x2="99.9" y2="-35.4"/>
			<line class="st2" x1="85.7" y1="-34.9" x2="83.7" y2="-34.9"/>
			<line class="st2" x1="43.9" y1="-34.9" x2="37.7" y2="-34.9"/>
			<line class="st2" x1="42.7" y1="-31.9" x2="66.9" y2="-31.9"/>
			<line class="st2" x1="76.4" y1="-39.2" x2="102.7" y2="-39.2"/>
			<line class="st2" x1="56.7" y1="-34.9" x2="80.9" y2="-34.9"/>
			<line class="st2" x1="89.2" y1="-26.7" x2="102.7" y2="-26.7"/>
			<line class="st2" x1="88.9" y1="-25.4" x2="102.7" y2="-25.4"/>
			<line class="st2" x1="44.9" y1="-26.7" x2="63.7" y2="-26.7"/>
			<line class="st2" x1="44.7" y1="-25.4" x2="57.2" y2="-25.4"/>
			<line class="st2" x1="59.4" y1="-29.7" x2="83.7" y2="-29.7"/>
			<line class="st2" x1="71.2" y1="-23.4" x2="91.4" y2="-23.4"/>
			<line class="st2" x1="84.4" y1="-23.4" x2="84.4" y2="-26.9"/>
			<line class="st2" x1="28.7" y1="-23.4" x2="60.7" y2="-23.4"/>
			<line class="st2" x1="41.7" y1="-23.4" x2="41.7" y2="-26.9"/>
			<line class="st2" x1="95.7" y1="-23.4" x2="102.7" y2="-23.4"/>
			<line class="st2" x1="67.4" y1="-26.7" x2="71.2" y2="-26.7"/>
			<line class="st2" x1="28.7" y1="-14.7" x2="31.4" y2="-14.7"/>
			<line class="st2" x1="28.7" y1="-20.4" x2="65.4" y2="-20.4"/>
			<line class="st2" x1="44.2" y1="-18.7" x2="75.7" y2="-18.7"/>
			<line class="st2" x1="31.5" y1="-16.9" x2="69.7" y2="-16.9"/>
			<line class="st2" x1="58.7" y1="-7.4" x2="78.9" y2="-7.4"/>
			<line class="st2" x1="71.9" y1="-7.4" x2="71.9" y2="-10.9"/>
			<line class="st2" x1="81.4" y1="-10.4" x2="75.2" y2="-10.4"/>
			<line class="st2" x1="38.9" y1="-31.9" x2="28.7" y2="-31.9"/>
			<line class="st2" x1="28.7" y1="-7.4" x2="38.9" y2="-7.4"/>
			<line class="st2" x1="48.4" y1="-14.7" x2="81.4" y2="-14.7"/>
			<line class="st2" x1="28.7" y1="-10.4" x2="52.9" y2="-10.4"/>
			<line class="st2" x1="88.7" y1="-14.7" x2="102.7" y2="-14.7"/>
			<line class="st2" x1="67.2" y1="-5.1" x2="91.2" y2="-5.1"/>
			<line class="st2" x1="92.2" y1="-10.4" x2="102.7" y2="-10.4"/>
			<line class="st2" x1="31.4" y1="-5.1" x2="55.7" y2="-5.1"/>
			<line class="st2" x1="59.2" y1="-0.2" x2="59.2" y2="-3.6"/>
			<line class="st2" x1="92.2" y1="-18.9" x2="102.7" y2="-18.9"/>
			<line class="st2" x1="94.9" y1="-5.1" x2="98.7" y2="-5.1"/>
			<line class="st2" x1="45.9" y1="-72.2" x2="66.2" y2="-72.2"/>
			<line class="st2" x1="59.2" y1="-72.2" x2="59.2" y2="-75.7"/>
			<line class="st2" x1="32.4" y1="-69.7" x2="36.2" y2="-69.7"/>
		</g>
		<g>
			<line class="st2" x1="9.1" y1="-51.7" x2="30.7" y2="-51.7"/>
			<line class="st2" x1="8.9" y1="-50.4" x2="30.7" y2="-50.4"/>
			<line class="st2" x1="0.2" y1="-43.2" x2="30.7" y2="-43.2"/>
			<line class="st2" x1="14.6" y1="-31.9" x2="30.7" y2="-31.9"/>
			<line class="st2" x1="4.4" y1="-39.2" x2="30.7" y2="-39.2"/>
			<line class="st2" x1="17.1" y1="-26.7" x2="30.7" y2="-26.7"/>
			<line class="st2" x1="16.9" y1="-25.4" x2="30.7" y2="-25.4"/>
			<line class="st2" x1="23.6" y1="-23.4" x2="30.7" y2="-23.4"/>
			<line class="st2" x1="16.6" y1="-14.7" x2="30.7" y2="-14.7"/>
			<line class="st2" x1="20.1" y1="-10.4" x2="30.7" y2="-10.4"/>
			<line class="st2" x1="20.1" y1="-18.9" x2="30.7" y2="-18.9"/>
		</g>
		<g>
			<line class="st2" x1="59.2" y1="-72.2" x2="59.2" y2="-75.7"/>
		</g>
	</g>
</pattern>
<g>
	<polyline class="st3" points="2.7,2 262.2,2 393.2,136 259.2,269 	"/>
	<linearGradient id="SVGID_1_" gradientUnits="userSpaceOnUse" x1="412.6781" y1="133.4913" x2="700.6781" y2="133.4913">
		<stop  offset="0" style="stop-color:#E9AF00"/>
		<stop  offset="1" style="stop-color:#000000"/>
	</linearGradient>
	<polygon class="st4" points="412.7,1.5 569.7,1.5 700.7,132.5 571.7,265.5 416.2,265.5 546.9,134.7 	"/>
	
		<pattern  id="SVGID_00000146482392285177189270000002968979200640861366_" xlink:href="#Diagonal_Lines" patternTransform="matrix(1 0 0 1 -6 -45)">
	</pattern>
	<polygon style="fill:url(#SVGID_00000146482392285177189270000002968979200640861366_);" points="299.7,19.5 411.7,20.5 
		527.7,134.5 415.7,245.5 302.5,246.5 407.3,134.1 	"/>
	<polyline class="st6" points="284.7,1.5 568.7,1.5 699.7,132.5 570.7,265.5 	"/>
	<g>
		<path class="st7" d="M583.9,89.2c1.8,0.7,4.1,1.9,5.2,2.9l-1.1,1.6c-1.1-1-3.4-2.2-5.2-3L583.9,89.2z M583.7,105.7
			c1.4-2.2,3.4-6,4.9-9.2l1.5,1.2c-1.3,3-3.1,6.5-4.5,8.7c0.1,0.1,0.1,0.3,0.1,0.4s0,0.2-0.1,0.3L583.7,105.7z M585.4,81.6
			c1.8,0.8,4,2.1,5.1,3.1l-1.1,1.5c-1.1-1-3.2-2.4-5.1-3.2L585.4,81.6z M608.9,96.4h-8c1.4,4.5,4.2,7.8,8.3,9.3
			c-0.4,0.4-1,1.1-1.3,1.7c-4.4-1.9-7.2-5.6-8.8-10.6c-0.8,4.1-3,7.8-8.6,10.6c-0.3-0.4-1-1.1-1.5-1.4c5.3-2.6,7.4-5.9,8.2-9.6h-6.9
			v-1.8h7.2c0.1-1.2,0.2-2.4,0.2-3.7v-3.2h-5.6V86h5.6v-4.6l2.4,0.2c0,0.2-0.2,0.3-0.6,0.4V86h6.6v8.7h2.7V96.4z M599.7,87.8V91
			c0,1.2,0,2.4-0.2,3.6h4.9v-6.9H599.7z"/>
		<path class="st7" d="M608.9,120.9h-3.4c1.1,1.8,2.4,3.3,4,4.2c-0.4,0.4-1,1-1.3,1.5c-1.8-1.3-3.4-3.3-4.6-5.7h-5.9
			c-1.2,2.4-2.9,4.3-5,5.8c-0.2-0.4-0.7-1-1-1.3v7.8c0,2-0.9,2.3-4.4,2.2c-0.1-0.4-0.3-1.3-0.6-1.7c0.6,0,1.3,0,1.7,0
			c1.5,0,1.5,0,1.5-0.6v-7.4h-3.8c-0.2,3.4-0.8,6.9-2,9.7c-0.3-0.3-1-0.7-1.5-0.9c1.8-4,2-9.7,2-13.9v-10.2h7v14.9
			c1.7-1.1,3-2.6,4.1-4.4h-3.4v-1.6h4.3c0.4-1,0.8-2,1.2-3.2h-4.7v-1.6h5.2c0.4-1.6,0.7-3.4,0.9-5.2l2.2,0.3
			c-0.1,0.2-0.2,0.3-0.6,0.4c-0.2,1.6-0.5,3.1-0.8,4.5h3.6l-0.5-0.2c0.7-1.2,1.7-3.2,2.1-4.6l2.2,0.8c-0.1,0.2-0.3,0.3-0.6,0.3
			c-0.5,1.1-1.3,2.6-2,3.8h3.6v1.6h-5c0.3,1.1,0.8,2.2,1.2,3.2h4.2V120.9z M586.3,120.5c0,1,0,2.2-0.1,3.4h3.7v-5.1h-3.6V120.5z
			 M590,112.1h-3.6v5h3.6V112.1z M605.1,125.5l0.4,0l1,0.1c0,0.2,0,0.4-0.1,0.6c-0.3,5.5-0.6,7.5-1.3,8.2c-0.6,0.7-1.3,0.7-2.9,0.7
			c-0.5,0-1.1,0-1.7-0.1c-0.1-0.5-0.2-1.2-0.5-1.6c1.2,0.1,2.3,0.1,2.7,0.1c0.4,0,0.6-0.1,0.8-0.3c0.4-0.4,0.7-2.1,1-6.2h-4.5
			c-0.8,3.7-2.4,6.6-6.7,8.3c-0.2-0.4-0.7-1.1-1.1-1.4c3.7-1.4,5.3-3.7,6-6.9h-4v-1.6h4.3c0.1-1,0.2-2,0.3-3.2l2.3,0.2
			c0,0.2-0.2,0.3-0.6,0.4c-0.1,0.9-0.2,1.7-0.3,2.6H605.1z M595.1,109.8c0.8,1.1,1.5,2.7,1.7,3.7l-1.5,0.6c-0.2-1.1-0.9-2.6-1.6-3.8
			L595.1,109.8z M599.6,116.1c-0.3,1.1-0.7,2.2-1.1,3.2h4.5c-0.4-1-0.8-2.1-1.1-3.2H599.6z"/>
		<path class="st7" d="M597.7,158.3h-6.4v5h-1.8v-5h-6.5v-1.7h6.5V154h-5.3v-9.9h12.6v9.9h-5.5v2.6h6.4V158.3z M584.5,138
			c1,1.4,1.9,3.4,2.1,4.6l-1.7,0.6c-0.3-1.3-1.1-3.3-2-4.7L584.5,138z M585.7,145.6v2.7h3.8v-2.7H585.7z M585.7,149.7v2.7h3.8v-2.7
			H585.7z M589.9,137.4c0.7,1.5,1.2,3.6,1.3,4.8l-1.8,0.4c-0.1-1.3-0.6-3.4-1.2-4.9L589.9,137.4z M595,148.3v-2.7h-3.9v2.7H595z
			 M595,152.5v-2.7h-3.9v2.7H595z M598.1,138.3c-0.1,0.2-0.3,0.3-0.6,0.3c-0.7,1.5-1.8,3.6-2.7,5c0,0-1.5-0.6-1.5-0.6
			c0.9-1.4,2-3.8,2.6-5.4L598.1,138.3z M602.2,147c0.3,2.7,0.6,5.2,1.1,7.4c1.2-1.9,2.3-4,3.1-6.2l2.2,0.7c-0.1,0.2-0.3,0.3-0.6,0.3
			c-1,2.8-2.4,5.3-4.1,7.6c0.8,3,1.9,4.8,3.2,4.8c0.7,0,1-1.5,1.2-5c0.4,0.4,1,0.9,1.5,1.1c-0.4,4.5-1,5.8-2.8,5.8
			c-1.9,0-3.3-1.9-4.4-5c-1.6,1.8-3.4,3.4-5.4,4.6c-0.3-0.4-0.8-1-1.2-1.3c2.3-1.3,4.3-3.1,6-5.3c-0.7-2.6-1.1-5.7-1.5-9.1l-3.1,0.4
			l-0.3-1.7l3.2-0.4c-0.2-2.7-0.3-5.4-0.3-8.1l2.5,0.1c0,0.2-0.2,0.4-0.6,0.4c0,2.5,0.1,5,0.3,7.4l6.9-0.8l0.2,1.7L602.2,147z
			 M605,137.8c1.4,1.4,2.9,3.4,3.5,4.7l-1.5,0.9c-0.6-1.4-2-3.4-3.4-4.8L605,137.8z"/>
	</g>
	
		<pattern  id="SVGID_00000004535887737932664340000005373964259455218346_" xlink:href="#Lines" patternTransform="matrix(1 0 0 1 -6 -45)">
	</pattern>
	<polygon style="fill:url(#SVGID_00000004535887737932664340000005373964259455218346_);" points="70.7,21.5 258,19.8 374,133.8 
		262,244.8 75.7,248.5 191.7,131.5 	"/>
	<g>
		<path class="st7" d="M449,104.9h-12.4v-1.4l2-2.2c5-5,7.5-8.1,7.5-11.5c0-2.2-1-4.3-4-4.3c-1.7,0-3.2,0.9-4.2,1.7l-0.8-1.6
			c1.3-1.1,3.2-2,5.4-2c4.2,0,5.9,3.1,5.9,6c0,3.9-2.8,7.3-7.1,11.7l-1.7,1.7v0.1h9.3V104.9z"/>
		<path class="st7" d="M431.4,111.1h23.2v24.1h-1.9v-2h-19.3v2h-1.9V111.1z M433.3,131.4h19.3V113h-19.3V131.4z M437.6,117.3h10.6
			v9.5h-10.6V117.3z M446.4,125.2V119h-7.1v6.3H446.4z"/>
		<path class="st7" d="M444.7,158.3h-6.4v5h-1.8v-5h-6.5v-1.7h6.5V154h-5.3v-9.9h12.6v9.9h-5.5v2.6h6.4V158.3z M431.5,138
			c1,1.4,1.9,3.4,2.1,4.6l-1.7,0.6c-0.3-1.3-1.1-3.3-2-4.7L431.5,138z M432.7,145.6v2.7h3.8v-2.7H432.7z M432.7,149.7v2.7h3.8v-2.7
			H432.7z M436.9,137.4c0.7,1.5,1.2,3.6,1.3,4.8l-1.8,0.4c-0.1-1.3-0.6-3.4-1.2-4.9L436.9,137.4z M442,148.3v-2.7h-3.9v2.7H442z
			 M442,152.5v-2.7h-3.9v2.7H442z M445.1,138.3c-0.1,0.2-0.3,0.3-0.6,0.3c-0.7,1.5-1.8,3.6-2.7,5c0,0-1.5-0.6-1.5-0.6
			c0.9-1.4,2-3.8,2.6-5.4L445.1,138.3z M449.2,147c0.3,2.7,0.6,5.2,1.1,7.4c1.2-1.9,2.3-4,3.1-6.2l2.2,0.7c-0.1,0.2-0.3,0.3-0.6,0.3
			c-1,2.8-2.4,5.3-4.1,7.6c0.8,3,1.9,4.8,3.2,4.8c0.7,0,1-1.5,1.2-5c0.4,0.4,1,0.9,1.5,1.1c-0.4,4.5-1,5.8-2.8,5.8
			c-1.9,0-3.3-1.9-4.4-5c-1.6,1.8-3.4,3.4-5.4,4.6c-0.3-0.4-0.8-1-1.2-1.3c2.3-1.3,4.3-3.1,6-5.3c-0.7-2.6-1.1-5.7-1.5-9.1l-3.1,0.4
			l-0.3-1.7l3.2-0.4c-0.2-2.7-0.3-5.4-0.3-8.1l2.5,0.1c0,0.2-0.2,0.4-0.6,0.4c0,2.5,0.1,5,0.3,7.4l6.9-0.8l0.2,1.7L449.2,147z
			 M452,137.8c1.4,1.4,2.9,3.4,3.5,4.7l-1.5,0.9c-0.6-1.4-2-3.4-3.4-4.8L452,137.8z"/>
	</g>
	<g id="g4703_00000167383323315724822320000015215665135716042624_">
		<path id="path4162_00000045595707271732652110000009787517121194014898_" class="st9" d="M853,36.1c2.2-0.1,2.7,1.8,2.4,4.6
			c-1.4,8.2-4.3,14.4-8.1,19.7c0,0,0,0,0,0c-0.2,0.3-0.4,0.5-0.6,0.8c-0.1,0.2-0.2,0.3-0.3,0.5c-0.1,0.1-0.2,0.2-0.2,0.3
			c-0.1,0.1-0.1,0.2-0.2,0.3c-0.1,0.2-0.2,0.3-0.4,0.5c0,0-0.1,0.1-0.1,0.1c-0.1,0.2-0.3,0.4-0.4,0.5c0,0,0,0,0,0.1c0,0,0,0,0,0
			c-0.2,0.2-0.3,0.4-0.5,0.6c0,0.1-0.1,0.1-0.2,0.2c-0.1,0.1-0.2,0.3-0.3,0.4c-0.3,0.3-0.6,0.7-0.9,1c0,0-0.1,0.1-0.1,0.1
			c-0.2,0.2-0.4,0.4-0.6,0.6c-0.2,0.2-0.3,0.3-0.5,0.5c-0.7,0.7-1.4,1.4-2.1,2.1c0,0-0.1,0.1-0.1,0.1c-0.1-8.8-0.2-17.6,2.9-26.6
			c0.1,0,0.3-0.1,0.4-0.1c0.3-0.1,0.6-0.2,0.8-0.3c0,0,0.1,0,0.1,0c0.1,0,0.2-0.1,0.3-0.1c0,0,0.1,0,0.1,0c0.1-0.1,0.3-0.1,0.4-0.2
			c0.1,0,0.2-0.1,0.3-0.1c0,0,0.1,0,0.1-0.1c0.2-0.1,0.3-0.1,0.5-0.2c0.3-0.1,0.6-0.3,0.9-0.5c0.1-0.1,0.2-0.1,0.4-0.2
			c0,0,0.1,0,0.1,0c0.2-0.1,0.3-0.2,0.5-0.3c0,0,0.1,0,0.1-0.1c0.1,0,0.1-0.1,0.2-0.1c0.2-0.1,0.3-0.2,0.5-0.4c0,0,0,0,0,0
			c0.1-0.1,0.2-0.2,0.4-0.3c0,0,0.1-0.1,0.1-0.1c0.2-0.2,0.4-0.4,0.6-0.6c0,0,0.1-0.1,0.1-0.1c0.1-0.1,0.2-0.2,0.3-0.3
			c0.1-0.1,0.1-0.1,0.2-0.2c0.4-0.5,0.8-1,1.1-1.6C851.8,36.3,852.4,36.2,853,36.1L853,36.1z"/>
		<path id="path3914_00000088820568192267318400000005084274494848007603_" d="M794.5,161.7l-0.1,20.4c13.1,7.8,51,6.7,69.3,0.2
			l0.1-21.3C840.9,166.2,817.8,167.5,794.5,161.7L794.5,161.7z"/>
		
			<linearGradient id="path3011_00000016783032954918976050000011963868810131563154_" gradientUnits="userSpaceOnUse" x1="-80.2035" y1="122.3407" x2="14.7554" y2="122.3407" gradientTransform="matrix(0.9194 0 0 -0.9194 860.7601 207.4752)">
			<stop  offset="0" style="stop-color:#FCEA9F"/>
			<stop  offset="9.398300e-02" style="stop-color:#D4AA00"/>
			<stop  offset="0.2587" style="stop-color:#917918"/>
			<stop  offset="0.49" style="stop-color:#FAE697"/>
			<stop  offset="0.7137" style="stop-color:#917918"/>
			<stop  offset="0.9228" style="stop-color:#D4AA00"/>
			<stop  offset="1" style="stop-color:#FCEA9F"/>
		</linearGradient>
		
			<path id="path3011_00000100373218351926374790000001129254656481772714_" style="fill:url(#path3011_00000016783032954918976050000011963868810131563154_);" d="
			M828.2,23.7c-13,0-25.3,1-24.4,3.3c1.1,4.1,2.4,8.2-0.2,11.5c-6.6-1.9-12.4-6.5-15.5-8.9c-4.9,20,7.6,38.1,23.1,55.9l1-0.3
			c7.7,22.8,19.6,49.2-14,62.5c-1.9,3.6-1.4,7.2-1.2,10.8l-2.5,0.3l-0.2,2.9c14.9,8.1,58.4,4.6,69.5-0.5l-0.5-3.2l-1.5,0.3
			c1.7-3.9-0.2-7.9-1.2-11.8C822.2,136,845.4,96.4,849.2,84l1,0.2c14.6-16.2,30.6-46,21.4-57.3c-4.4,4.4-9.2,8.3-15.2,11.1
			c-1.7-3.6-2.2-7.2,0.5-10.9C858.5,25,842.9,23.7,828.2,23.7L828.2,23.7z M866.1,38.2c2.2-0.1,2.7,1.8,2.4,4.6
			c-2.2,13.1-8.4,21.2-15.5,28.3c-0.1-8.8-0.2-17.6,2.9-26.6c3.6-1.1,6.7-2.8,8.3-5.9C865,38.3,865.6,38.2,866.1,38.2L866.1,38.2z
			 M794.1,39.5c0.6,0,1.3,0.1,2.1,0.4c1.6,3.1,4.7,4.8,8.3,5.9c3.2,9,3.1,17.8,2.9,26.6c-7.1-7.1-13.3-15.2-15.5-28.3
			C791.7,41.4,792.1,39.6,794.1,39.5z"/>
		<g id="g4066_00000007387268212466268130000002517465315701222827_" transform="matrix(.79458 0 0 .87539 810.07 1.0538)">
			<path id="path4068_00000061453746858411725260000007164447289046508673_" class="st11" d="M29.1,27.4C15.7,35.1,4,43-6.2,55.8
				c1,4.1,1.5,8.1,1.7,12.1c12.7-20,32.7-29.3,53.1-38.1C46,28.6,38.1,27.8,29.1,27.4L29.1,27.4z"/>
			<path id="path4070_00000093167238592822432300000003122708973604085661_" class="st12" d="M42,57.9C25.1,67.2,10.4,74.8-2.2,87.7
				l2.1,6.5l0.9-0.3c0.3,0.8,0.6,1.6,0.8,2.4c11.9-12.9,27.6-20.3,43.6-27.3c0.1-3.1,0.3-6.2,0.8-9.3L42,57.9L42,57.9z"/>
		</g>
		<g id="g4085_00000152953857912616702790000011781073047273453711_" transform="matrix(.91945 0 0 .91945 895.26 -23.076)">
			<g id="g4080_00000092445719203293681620000010794881534850822020_">
				<g id="g4046_00000155829379570745739420000006147356973081305224_" transform="translate(5.7143 12.857)">
					
						<radialGradient id="path4004_00000087401426658159838070000000089291051844778122_" cx="-1011.799" cy="257.6209" r="27.4022" gradientTransform="matrix(0.9194 6.422726e-03 8.690549e-03 -1.2441 852.1897 399.4671)" gradientUnits="userSpaceOnUse">
						<stop  offset="0" style="stop-color:#D45500"/>
						<stop  offset="0.523" style="stop-color:#108FF2;stop-opacity:0.9961"/>
						<stop  offset="0.6556" style="stop-color:#FFFFFF;stop-opacity:0.9961"/>
						<stop  offset="0.7956" style="stop-color:#FFFFFF;stop-opacity:0.9961"/>
						<stop  offset="0.9506" style="stop-color:#108FF2;stop-opacity:0.9961"/>
						<stop  offset="1" style="stop-color:#D45500;stop-opacity:0.986"/>
					</radialGradient>
					
						<path id="path4004_00000015323630929989388870000010898759765932663201_" style="opacity:0.4959;fill:url(#path4004_00000087401426658159838070000000089291051844778122_);enable-background:new    ;" d="
						M-68,38c-13.4,7.7-25.1,15.6-35.3,28.4c1,4.1,1.5,8.1,1.7,12.1c12.7-20,32.7-29.3,53.1-38.1C-51.1,39.2-58.9,38.3-68,38L-68,38
						z"/>
					
						<radialGradient id="path4006_00000152959498030175584100000011954887892718056629_" cx="-1011.799" cy="257.6209" r="27.4022" gradientTransform="matrix(0.9194 6.422726e-03 8.690549e-03 -1.2441 852.1897 399.4671)" gradientUnits="userSpaceOnUse">
						<stop  offset="0" style="stop-color:#D45500"/>
						<stop  offset="0.523" style="stop-color:#108FF2;stop-opacity:0.9961"/>
						<stop  offset="0.6556" style="stop-color:#FFFFFF;stop-opacity:0.9961"/>
						<stop  offset="0.7956" style="stop-color:#FFFFFF;stop-opacity:0.9961"/>
						<stop  offset="0.9506" style="stop-color:#108FF2;stop-opacity:0.9961"/>
						<stop  offset="1" style="stop-color:#D45500;stop-opacity:0.986"/>
					</radialGradient>
					
						<path id="path4006_00000125602789261038236270000013146112259232945536_" style="opacity:0.5369;fill:url(#path4006_00000152959498030175584100000011954887892718056629_);enable-background:new    ;" d="
						M-55.1,68.4C-72,77.8-86.7,85.4-99.2,98.3l2.1,6.5l0.9-0.3c0.3,0.8,0.6,1.6,0.8,2.4c11.9-12.9,27.6-20.3,43.6-27.3
						c0.1-3.1,0.3-6.2,0.8-9.3L-55.1,68.4L-55.1,68.4z"/>
				</g>
			</g>
		</g>
		
			<radialGradient id="path3039_00000027592481562117435700000017443709564786117511_" cx="1186.183" cy="233.2827" r="29.0194" gradientTransform="matrix(0.4188 -1.551600e-02 -7.235700e-02 -1.9528 350.5522 536.9352)" gradientUnits="userSpaceOnUse">
			<stop  offset="0" style="stop-color:#FFFFFF"/>
			<stop  offset="1" style="stop-color:#FFCC00;stop-opacity:0"/>
		</radialGradient>
		
			<path id="path3039_00000088101866809969124900000001467490273038535096_" style="fill:url(#path3039_00000027592481562117435700000017443709564786117511_);" d="
			M828.2,23.7c-13,0-25.3,1-24.4,3.3c1.1,4,2.4,8.1,0,11.3l0.8,7.6c0,0,0,0,0,0c3.2,9,3.1,17.8,2.9,26.6c-0.1-0.1-0.2-0.2-0.3-0.3
			l4.2,13.2l0.8-0.3c1.8,5.5,3.9,11.1,5.6,16.7l24.6,0.5c2.5-7.6,5.7-14.3,6.9-18.3l0.7,0.1l3.2-13.2c0,0-0.1,0.1-0.1,0.1
			c-0.1-8.8-0.2-17.6,2.9-26.6c0.1,0,0.3-0.1,0.4-0.1l0.1-6.3c-1.7-3.6-2.2-7.2,0.5-10.9C858.5,25,842.9,23.7,828.2,23.7L828.2,23.7
			z"/>
		<path id="path3028_00000157267741343187549570000008693445616670128009_" class="st16" d="M818.1,103c1.6,5.6,2.6,11.2,2.6,16.4
			c6,1.2,12.1,1.1,18.2-0.1c0.2-5.4,1.5-10.9,3.2-16.1C834,104.4,826.1,104.5,818.1,103L818.1,103z"/>
		
			<radialGradient id="path3858_00000063602317439876314940000007617175851570054806_" cx="-492.1971" cy="57.8378" r="13.0114" gradientTransform="matrix(1.6512 -2.158500e-02 -4.076500e-02 -3.1183 1645.1179 282.084)" gradientUnits="userSpaceOnUse">
			<stop  offset="0" style="stop-color:#FCF6F6"/>
			<stop  offset="1" style="stop-color:#808080;stop-opacity:0"/>
		</radialGradient>
		
			<path id="path3858_00000016753945205747921550000010053554340315799962_" style="fill:url(#path3858_00000063602317439876314940000007617175851570054806_);" d="
			M818.1,103.7c1.6,5.6,2.6,11.2,2.6,16.4c6,1.2,12.1,1.1,18.2-0.1c0.2-5.4,1.5-10.9,3.2-16.1C834,105.1,826.1,105.2,818.1,103.7
			L818.1,103.7z"/>
		
			<radialGradient id="path3900_00000062165455273385747620000015905040341390056611_" cx="-145.3311" cy="147.5985" r="29.0358" gradientTransform="matrix(1.0261 -1.721800e-02 -2.134300e-02 -1.2719 983.3428 257.4905)" gradientUnits="userSpaceOnUse">
			<stop  offset="0" style="stop-color:#FFFFFF"/>
			<stop  offset="1" style="stop-color:#FFCC00;stop-opacity:0"/>
		</radialGradient>
		
			<path id="path3900_00000170268187416749048070000002268382641121911988_" style="fill:url(#path3900_00000062165455273385747620000015905040341390056611_);" d="
			M828.2,23.7c-13,0-25.3,1-24.4,3.3c1.1,4,2.4,8.1,0,11.3l0.8,7.6c0,0,0,0,0,0c3.2,9,3.1,17.8,2.9,26.6c-0.1-0.1-0.2-0.2-0.3-0.3
			l4.2,13.2l0.8-0.3c1.8,5.5,3.9,11.1,5.6,16.7l24.6,0.5c2.5-7.6,5.7-14.3,6.9-18.3l0.7,0.1l3.2-13.2c0,0-0.1,0.1-0.1,0.1
			c-0.1-8.8-0.2-17.6,2.9-26.6c0.1,0,0.3-0.1,0.4-0.1l0.1-6.3c-1.7-3.6-2.2-7.2,0.5-10.9C858.5,25,842.9,23.7,828.2,23.7L828.2,23.7
			z"/>
		<path id="path3033_00000101089540857986805640000000298199987623829178_" class="st19" d="M828.2,23.7c-13,0-25.3,1-24.4,3.3
			c0.2,0.6,0.3,1.1,0.5,1.7c17.9-3.2,34.9-2.3,51.6,0.4c0.3-0.6,0.7-1.3,1.1-1.9C858.5,25,842.9,23.7,828.2,23.7L828.2,23.7z"/>
		
			<radialGradient id="path3838_00000062908557684307529010000015209456222269906099_" cx="-244.4842" cy="-3537.2856" r="29.0258" gradientTransform="matrix(1.1406 -3.920000e-02 -3.032700e-03 -8.824400e-02 1098.5155 -295.3878)" gradientUnits="userSpaceOnUse">
			<stop  offset="0" style="stop-color:#FFFFFF"/>
			<stop  offset="1" style="stop-color:#CCCCCC;stop-opacity:0"/>
		</radialGradient>
		
			<path id="path3838_00000022536382961545862840000015480894043318193538_" style="fill:url(#path3838_00000062908557684307529010000015209456222269906099_);" d="
			M828.2,23.7c-13,0-25.3,1-24.4,3.3c0.2,0.6,0.3,1.1,0.5,1.7c17.9-3.2,34.9-2.3,51.6,0.4c0.3-0.6,0.7-1.3,1.1-1.9
			C858.5,25,842.9,23.7,828.2,23.7L828.2,23.7z"/>
		
			<radialGradient id="path3904_00000150798098850914205550000005914876566158422405_" cx="999.5152" cy="-1442.4097" r="29.0026" gradientTransform="matrix(0.4631 9.312600e-03 3.100400e-03 -0.1542 371.9922 -205.7162)" gradientUnits="userSpaceOnUse">
			<stop  offset="0" style="stop-color:#FFFFFF"/>
			<stop  offset="1" style="stop-color:#FFFFFF;stop-opacity:0"/>
		</radialGradient>
		
			<path id="path3904_00000047050272066889536820000007886843221037523119_" style="fill:url(#path3904_00000150798098850914205550000005914876566158422405_);" d="
			M828.2,23.7c-13,0-25.3,1-24.4,3.3c0.2,0.6,0.3,1.1,0.5,1.7c17.9-3.2,34.9-2.3,51.6,0.4c0.3-0.6,0.7-1.3,1.1-1.9
			C858.5,25,842.9,23.7,828.2,23.7L828.2,23.7z"/>
		<path id="path3017_00000007413913188844707080000012580604324161257619_" class="st22" d="M863.4,157.9c-21.5,6.1-44,8.1-68.9,0.8
			l0,0l-0.2,2.8c14.9,8.1,58.4,4.6,69.5-0.5L863.4,157.9L863.4,157.9z"/>
		<path id="path3019_00000003789295451649593690000015011005607022535338_" class="st19" d="M862.2,157.1c-29.9,6-36.4,5.9-65.1,1
			l-0.1,0c0,0.1,0,0.1,0,0.2l-2.3,0.3c16.4,5.9,44.3,6.5,68.7-0.6l0-0.1l-0.1-0.1l-1.4,0.3C862,157.8,862.1,157.5,862.2,157.1
			L862.2,157.1L862.2,157.1z"/>
		
			<radialGradient id="path3021_00000047762957790244693010000007805140423162220964_" cx="-299.9726" cy="581.7759" r="36.4122" gradientTransform="matrix(1.2367 -1.898940e-03 -4.669978e-04 -0.3041 1200.8171 328.508)" gradientUnits="userSpaceOnUse">
			<stop  offset="0" style="stop-color:#FFF9F9"/>
			<stop  offset="1" style="stop-color:#FFF9F9;stop-opacity:0"/>
		</radialGradient>
		
			<path id="path3021_00000059271977580164102740000015219785024122500016_" style="fill:url(#path3021_00000047762957790244693010000007805140423162220964_);" d="
			M860.7,146.4c-14.1,5.8-46,6.6-62.3,1.1c-0.1,0-0.1,0-0.2,0.1c-1.2,2.2-1.4,4.4-1.4,6.6c15.4,6,52.3,4.3,65.6-1.3
			C862,150.7,861.2,148.5,860.7,146.4L860.7,146.4z"/>
		
			<radialGradient id="path3872_00000023274464285283723340000005920493397275775106_" cx="-467.479" cy="889.1986" r="35.6551" gradientTransform="matrix(1.5674 5.054000e-02 7.876500e-03 -0.2443 1555.7821 395.7181)" gradientUnits="userSpaceOnUse">
			<stop  offset="0" style="stop-color:#FFFFFF"/>
			<stop  offset="1" style="stop-color:#FFFFFF;stop-opacity:0"/>
		</radialGradient>
		
			<path id="path3872_00000052792385843790581190000000144418752266194866_" style="fill:url(#path3872_00000023274464285283723340000005920493397275775106_);" d="
			M860.7,147.2c-14.1,5.8-46,6.6-62.3,1.1c-0.1,0-0.1,0-0.2,0.1c-1.2,2.2-1.4,4.4-1.4,6.6c15.4,6,52.3,4.3,65.6-1.3
			C862,151.5,861.2,149.4,860.7,147.2L860.7,147.2z"/>
		
			<linearGradient id="path3970_00000176035099978555072500000010859310354271744143_" gradientUnits="userSpaceOnUse" x1="-72.4742" y1="165.2759" x2="-52.132" y2="161.4287" gradientTransform="matrix(0.9194 0 0 -0.9194 860.7601 207.4752)">
			<stop  offset="0" style="stop-color:#000000"/>
			<stop  offset="0.5023" style="stop-color:#DBDBDB"/>
			<stop  offset="0.5437" style="stop-color:#DBDBDB"/>
			<stop  offset="1" style="stop-color:#000000"/>
		</linearGradient>
		
			<path id="path3970_00000050621724870937981170000016292801702887148431_" style="fill:url(#path3970_00000176035099978555072500000010859310354271744143_);" d="
			M793.9,33.7l0.6,5.8c0.5,0,1.1,0.1,1.7,0.4c1.3,2.5,3.5,4.1,6.2,5.2l-0.8-7.3C798.8,36.7,796.2,35.2,793.9,33.7L793.9,33.7z
			 M796.3,57.5l1,10.1c2.6,4,5.7,8,8.9,12l-1-9.6C801.8,66.3,798.7,62.3,796.3,57.5L796.3,57.5z"/>
		
			<linearGradient id="path3972_00000121975852160000277310000005453667147965759907_" gradientUnits="userSpaceOnUse" x1="-7.9985" y1="161.9369" x2="5.8277" y2="167.0642" gradientTransform="matrix(0.9194 0 0 -0.9194 860.7601 207.4752)">
			<stop  offset="0" style="stop-color:#000000"/>
			<stop  offset="0.3234" style="stop-color:#DBDBDB"/>
			<stop  offset="0.7588" style="stop-color:#DBDBDB"/>
			<stop  offset="1" style="stop-color:#000000"/>
		</linearGradient>
		
			<path id="path3972_00000129898567310391006560000003919310221005745291_" style="fill:url(#path3972_00000121975852160000277310000005453667147965759907_);" d="
			M864,33.5c-2,1.5-4.1,2.8-6.4,4l-0.5,6.6c2.7-1,5.1-2.3,6.6-4.5L864,33.5L864,33.5z M862.6,59.2c-2.2,3.6-4.7,6.7-7.4,9.6
			l-0.8,10.5c2.7-3.3,5.3-7,7.7-10.9L862.6,59.2L862.6,59.2z"/>
		
			<radialGradient id="path4384_00000010992141524405100430000008756642858508789653_" cx="-341.3676" cy="232.0273" r="5.3098" gradientTransform="matrix(1.3719 0 0 -1.2201 1311.0972 329.3806)" gradientUnits="userSpaceOnUse">
			<stop  offset="0" style="stop-color:#FFFFFF"/>
			<stop  offset="1" style="stop-color:#FFFFFF;stop-opacity:0"/>
		</radialGradient>
		
			<path id="path4384_00000173143287117110602890000006880451448111286192_" style="fill:url(#path4384_00000010992141524405100430000008756642858508789653_);" d="
			M848.6,50.3l-5.1-3.1l1.4,5.4l-2.1-5.2l-2.5,5.1l1.8-5.3l-5.4,2.8l4.9-3.4l-6.2-0.5l6.2-0.1l-4.7-3.7l5.1,3.1l-1.4-5.4l2.1,5.2
			l2.5-5.1l-1.8,5.3l5.4-2.8l-4.9,3.4l6.2,0.5l-6.2,0.1L848.6,50.3z"/>
		
			<radialGradient id="path4408_00000077283613543725964980000005155280669361326216_" cx="-575.87" cy="527.6279" r="5.3098" gradientTransform="matrix(2.3937 0 0 -2.2802 2197.8933 1352.7052)" gradientUnits="userSpaceOnUse">
			<stop  offset="0" style="stop-color:#FFFFFF"/>
			<stop  offset="1" style="stop-color:#FFFFFF;stop-opacity:0"/>
		</radialGradient>
		
			<path id="path4408_00000039108641800250240730000002251623801311114887_" style="fill:url(#path4408_00000077283613543725964980000005155280669361326216_);" d="
			M829.5,157.1l-8.9-5.9l2.4,10.1l-3.6-9.8l-4.3,9.5l3.1-9.9l-9.3,5.3l8.6-6.3l-10.8-1l10.8-0.2l-8.1-6.8l8.9,5.9l-2.4-10.1l3.6,9.8
			l4.3-9.5l-3.1,9.9l9.3-5.3l-8.6,6.3l10.8,1l-10.8,0.2L829.5,157.1z"/>
		
			<linearGradient id="path4536_00000137847228739307395040000015112370450455281841_" gradientUnits="userSpaceOnUse" x1="794.4099" y1="79.1047" x2="863.7133" y2="79.1047" gradientTransform="matrix(1 0 0 -1 0 261.286)">
			<stop  offset="0" style="stop-color:#FCEA9F"/>
			<stop  offset="9.398300e-02" style="stop-color:#D4AA00"/>
			<stop  offset="0.2587" style="stop-color:#917918"/>
			<stop  offset="0.49" style="stop-color:#FAE697"/>
			<stop  offset="0.7137" style="stop-color:#917918"/>
			<stop  offset="0.9228" style="stop-color:#D4AA00"/>
			<stop  offset="1" style="stop-color:#FCEA9F"/>
		</linearGradient>
		
			<path id="path4536_00000085245658634193973780000009448957282807722917_" style="fill:url(#path4536_00000137847228739307395040000015112370450455281841_);" d="
			M863.7,178.8c-20.1,5.4-44.4,8.6-69.3,0.2l0,1.1c13.1,7.8,51,6.7,69.3,0.2L863.7,178.8z"/>
		
			<linearGradient id="path4549_00000114067055669860179790000003425696597355957398_" gradientUnits="userSpaceOnUse" x1="794.4099" y1="67.9929" x2="863.7133" y2="67.9929" gradientTransform="matrix(1 0 0 -1 0 247.714)">
			<stop  offset="0" style="stop-color:#FCEA9F"/>
			<stop  offset="9.398300e-02" style="stop-color:#D4AA00"/>
			<stop  offset="0.2587" style="stop-color:#917918"/>
			<stop  offset="0.49" style="stop-color:#FAE697"/>
			<stop  offset="0.7137" style="stop-color:#917918"/>
			<stop  offset="0.9228" style="stop-color:#D4AA00"/>
			<stop  offset="1" style="stop-color:#FCEA9F"/>
		</linearGradient>
		
			<path id="path4549_00000045584752129590679460000017433926280053026450_" style="fill:url(#path4549_00000114067055669860179790000003425696597355957398_);" d="
			M863.7,176.4c-20.1,5.4-44.4,8.6-69.3,0.2l0,1.1c13.1,7.8,51,6.7,69.3,0.2L863.7,176.4z"/>
		
			<linearGradient id="path4551_00000000918512549212682100000007790590149561091720_" gradientUnits="userSpaceOnUse" x1="794.4117" y1="28.8127" x2="863.7151" y2="28.8127" gradientTransform="matrix(1 0 0 -1 0 199.857)">
			<stop  offset="0" style="stop-color:#FCEA9F"/>
			<stop  offset="9.398300e-02" style="stop-color:#D4AA00"/>
			<stop  offset="0.2587" style="stop-color:#917918"/>
			<stop  offset="0.49" style="stop-color:#FAE697"/>
			<stop  offset="0.7137" style="stop-color:#917918"/>
			<stop  offset="0.9228" style="stop-color:#D4AA00"/>
			<stop  offset="1" style="stop-color:#FCEA9F"/>
		</linearGradient>
		
			<path id="path4551_00000182506003268948734120000012632676252608987275_" style="fill:url(#path4551_00000000918512549212682100000007790590149561091720_);" d="
			M863.7,167.7c-20.1,5.4-44.4,8.6-69.3,0.2l0,1.1c13.1,7.8,51,6.7,69.3,0.2L863.7,167.7L863.7,167.7z"/>
		
			<linearGradient id="path4553_00000032609795115139761700000017481805447794878637_" gradientUnits="userSpaceOnUse" x1="794.4099" y1="17.1161" x2="863.7133" y2="17.1161" gradientTransform="matrix(1 0 0 -1 0 185.571)">
			<stop  offset="0" style="stop-color:#FCEA9F"/>
			<stop  offset="9.398300e-02" style="stop-color:#D4AA00"/>
			<stop  offset="0.2587" style="stop-color:#917918"/>
			<stop  offset="0.49" style="stop-color:#FAE697"/>
			<stop  offset="0.7137" style="stop-color:#917918"/>
			<stop  offset="0.9228" style="stop-color:#D4AA00"/>
			<stop  offset="1" style="stop-color:#FCEA9F"/>
		</linearGradient>
		
			<path id="path4553_00000092437597434900917580000000245163860696607668_" style="fill:url(#path4553_00000032609795115139761700000017481805447794878637_);" d="
			M863.7,165.1c-20.1,5.4-44.4,8.6-69.3,0.2l0,1.1c13.1,7.8,51,6.7,69.3,0.2L863.7,165.1z"/>
		
			<linearGradient id="path3916_00000152947072739055929950000012402402077157435527_" gradientUnits="userSpaceOnUse" x1="-72.162" y1="36.1745" x2="3.3382" y2="36.1745" gradientTransform="matrix(0.9194 0 0 -0.9194 860.7601 207.4752)">
			<stop  offset="0" style="stop-color:#000000"/>
			<stop  offset="0.5023" style="stop-color:#DBDBDB"/>
			<stop  offset="0.5437" style="stop-color:#DBDBDB"/>
			<stop  offset="1" style="stop-color:#000000"/>
		</linearGradient>
		
			<path id="path3916_00000173126334982611781430000010122323597950135431_" style="opacity:0.8156;fill:url(#path3916_00000152947072739055929950000012402402077157435527_);enable-background:new    ;" d="
			M794.5,161.7l-0.1,20.4c13.1,7.8,51,6.7,69.3,0.2l0.1-21.3C840.9,166.2,817.8,167.5,794.5,161.7L794.5,161.7z"/>
		
			<radialGradient id="path4699_00000052816863110655835130000018186933112620963775_" cx="-390.7304" cy="214.5986" r="5.3098" gradientTransform="matrix(1.7353 0 0 -1.5433 1487.2677 357.5108)" gradientUnits="userSpaceOnUse">
			<stop  offset="0" style="stop-color:#FFFFFF"/>
			<stop  offset="1" style="stop-color:#FFFFFF;stop-opacity:0"/>
		</radialGradient>
		
			<path id="path4699_00000108988641312266000150000002365103901700935311_" style="fill:url(#path4699_00000052816863110655835130000018186933112620963775_);" d="
			M816.5,31.4l-6.5-4l1.7,6.8l-2.6-6.6l-3.1,6.4l2.3-6.7l-6.8,3.6l6.3-4.2L800,26l7.9-0.2l-5.9-4.6l6.5,4l-1.7-6.8l2.6,6.6l3.1-6.4
			l-2.3,6.7l6.8-3.6l-6.3,4.2l7.8,0.7l-7.9,0.2L816.5,31.4z"/>
	</g>
	<g>
		<path class="st7" d="M258.2,104.7V85.9h-0.1l-3.4,2l-0.6-1.7l4.3-2.4h2v21H258.2z"/>
		<path class="st7" d="M247.1,110.9h23.2V135h-1.9v-2H249v2h-1.9V110.9z M249,131.2h19.3v-18.4H249V131.2z M253.3,117.1h10.6v9.5
			h-10.6V117.1z M262.1,125v-6.3H255v6.3H262.1z"/>
		<path class="st7" d="M260.3,158.1h-6.4v5H252v-5h-6.5v-1.7h6.5v-2.6h-5.3v-9.9h12.6v9.9h-5.5v2.6h6.4V158.1z M247.1,137.8
			c1,1.4,1.9,3.4,2.1,4.6l-1.7,0.6c-0.3-1.3-1.1-3.3-2-4.7L247.1,137.8z M248.4,145.4v2.7h3.8v-2.7H248.4z M248.4,149.5v2.7h3.8
			v-2.7H248.4z M252.6,137.2c0.7,1.5,1.2,3.6,1.3,4.8l-1.8,0.4c-0.1-1.3-0.6-3.4-1.2-4.9L252.6,137.2z M257.6,148.1v-2.7h-3.9v2.7
			H257.6z M257.6,152.3v-2.7h-3.9v2.7H257.6z M260.7,138.1c-0.1,0.2-0.3,0.3-0.6,0.3c-0.7,1.5-1.8,3.6-2.7,5c0,0-1.5-0.6-1.5-0.6
			c0.9-1.4,2-3.8,2.6-5.4L260.7,138.1z M264.8,146.8c0.3,2.7,0.6,5.2,1.1,7.4c1.2-1.9,2.3-4,3.1-6.2l2.2,0.7
			c-0.1,0.2-0.3,0.3-0.6,0.3c-1,2.8-2.4,5.3-4.1,7.6c0.8,3,1.9,4.8,3.2,4.8c0.7,0,1-1.5,1.2-5c0.4,0.4,1,0.9,1.5,1.1
			c-0.4,4.5-1,5.8-2.8,5.8c-1.9,0-3.3-1.9-4.4-5c-1.6,1.8-3.4,3.4-5.4,4.6c-0.3-0.4-0.8-1-1.2-1.3c2.3-1.3,4.3-3.1,6-5.3
			c-0.7-2.6-1.1-5.7-1.5-9.1l-3.1,0.4l-0.3-1.7l3.2-0.4c-0.2-2.7-0.3-5.4-0.3-8.1l2.5,0.1c0,0.2-0.2,0.4-0.6,0.4
			c0,2.5,0.1,5,0.3,7.4l6.9-0.8l0.2,1.7L264.8,146.8z M267.6,137.6c1.4,1.4,2.9,3.4,3.5,4.7l-1.5,0.9c-0.6-1.4-2-3.4-3.4-4.8
			L267.6,137.6z"/>
	</g>
	<g>
		<path class="st7" d="M786.2,200.7l2.4,1.5c-0.3,0.5-0.7,1.3-0.9,2c-0.8,2.5-2.4,6.2-4.9,9.4c-2.7,3.3-6,5.8-11.3,7.9l-3.3-3
			c5.7-1.7,8.8-4.1,11.3-6.9c1.9-2.2,3.5-5.5,4-7.6h-7.9c-1.8,2.4-4.3,4.9-7.1,6.8l-3.1-2.4c4.9-3,7.4-6.6,8.7-9
			c0.4-0.7,1-2,1.3-2.9l4.1,1.3c-0.7,1-1.4,2.2-1.7,2.9l-0.1,0.1h5.6c0.9,0,1.8-0.1,2.4-0.3l0.2,0.1c-0.6-1.1-1.3-2.6-2-3.6l2.2-0.9
			c0.7,1,1.7,2.8,2.2,3.8L786.2,200.7z M789.3,194.7c0.7,1,1.8,2.8,2.3,3.8l-2.2,1c-0.6-1.2-1.5-2.8-2.2-3.9L789.3,194.7z"/>
		<path class="st7" d="M814.5,205.6c-0.2,0.4-0.4,0.9-0.5,1.2c-0.8,2.7-2,5.4-4.1,7.8c-2.8,3.1-6.4,5-10,6l-2.8-3.2
			c4.2-0.9,7.6-2.7,9.7-4.9c1.5-1.5,2.4-3.3,2.9-4.8h-13.5c-0.7,0-2.1,0-3.2,0.1v-3.6c1.2,0.1,2.4,0.2,3.2,0.2h13.9
			c0.9,0,1.7-0.1,2-0.3L814.5,205.6z M795.4,197.4c0.8,0.1,2,0.1,2.9,0.1h10.8c0.9,0,2.2,0,3-0.1v3.6c-0.8-0.1-2.1-0.1-3.1-0.1
			h-10.7c-0.9,0-2.1,0-2.9,0.1V197.4z"/>
		<path class="st7" d="M829.1,212.6c4.8-2.8,8.4-7.1,10.2-10.9l2.2,3.9c-2.1,3.8-5.9,7.6-10.4,10.4c-2.8,1.7-6.4,3.3-10.4,3.9
			l-2.4-3.7C822.7,215.7,826.4,214.2,829.1,212.6z M829.1,203.5l-2.9,2.9c-1.5-1.6-5-4.6-7-6l2.6-2.8
			C823.8,198.9,827.5,201.9,829.1,203.5z"/>
		<path class="st7" d="M859.5,199c0.4,0,1,0,1.6-0.1c0-0.2-0.1-0.3-0.1-0.5c0-1.8,1.5-3.4,3.4-3.4c1.8,0,3.3,1.5,3.3,3.4
			c0,1.8-1.5,3.3-3.3,3.3c-0.1,0-0.3,0-0.4,0l-0.2,0.8c-0.6,2.7-1.8,7.1-4.2,10.2c-2.5,3.4-6.2,6.1-11.3,7.7l-3.1-3.3
			c5.6-1.3,8.7-3.7,11-6.6c1.8-2.3,2.9-5.5,3.3-7.9h-13c-1.3,0-2.6,0.1-3.3,0.1v-3.9c0.8,0.1,2.4,0.2,3.3,0.2H859.5z M866,198.4
			c0-0.9-0.7-1.6-1.6-1.6c-0.9,0-1.6,0.7-1.6,1.6c0,0.9,0.7,1.6,1.6,1.6C865.3,200,866,199.3,866,198.4z"/>
		<path class="st7" d="M875,197.4c-0.1,0.6-0.1,1.2-0.1,2.1v9.5c0,0.7,0,1.8,0.1,2.4h-4.1c0-0.5,0.1-1.6,0.1-2.5v-9.4
			c0-0.5,0-1.5-0.1-2.1H875z M887.9,197.2c-0.1,0.8-0.1,1.7-0.1,2.8v5.5c0,6-1.2,8.6-3.2,10.9c-1.8,2-4.8,3.4-6.8,4.1l-2.9-3.1
			c2.8-0.6,5.2-1.7,6.9-3.5c1.9-2.1,2.3-4.2,2.3-8.6V200c0-1.1-0.1-2-0.2-2.8H887.9z"/>
		<path class="st7" d="M770.1,252c-1.5,0.9-4,1.7-6,2.1c-0.2-0.3-0.8-0.9-1.1-1.1c2-0.3,4.4-0.8,5.7-1.5L770.1,252z M764.8,241.5
			h-1.4V238h3.3c-0.3-0.5-0.9-1.2-1.4-1.7l1.3-0.4c0.6,0.6,1.3,1.4,1.6,1.9l-0.5,0.2h3.1v-2.3h1.5v2.3h3.1l-0.3-0.1
			c0.5-0.6,1.3-1.5,1.6-2.1l1.5,0.4c-0.5,0.7-1.1,1.3-1.6,1.8h3.4v3.5h-1.4v-2.4h-13.7V241.5z M765.4,244.4h12.8v6.9h-12.8V244.4z
			 M777,240.2v3.3h-10.5v-3.3H777z M766.8,246.4h10v-1.1h-10V246.4z M766.8,248.4h10v-1.1h-10V248.4z M766.8,250.4h10v-1.1h-10
			V250.4z M775.6,241.1h-7.7v1.4h7.7V241.1z M774.3,251.5c2.2,0.5,4.6,1.2,6,1.8l-1.5,0.9c-1.3-0.5-3.5-1.2-5.7-1.8L774.3,251.5z"/>
		<path class="st7" d="M792.3,252.1h7.8v1.3h-17v-1.3h7.6v-4.9h-6.7v-1.3h6.7v-2.7h-4.1V242c-1,0.8-2.2,1.5-3.3,2.1
			c-0.2-0.3-0.6-0.9-0.9-1.2c3.4-1.7,6.7-4.7,8.3-7.2h1.5c2.1,2.9,5.6,5.5,8.7,6.9c-0.4,0.4-0.7,0.9-1,1.3c-1.1-0.6-2.2-1.3-3.3-2.1
			v1.2h-4.3v2.7h6.9v1.3h-6.9V252.1z M786.9,247.7c0.8,1.1,1.6,2.6,1.9,3.6l-1.3,0.6c-0.3-1-1-2.5-1.8-3.7L786.9,247.7z
			 M796.5,241.8c-2-1.4-3.8-3.1-4.9-4.6c-1,1.5-2.7,3.2-4.7,4.6H796.5z M794,251.3c0.7-1,1.6-2.6,2.1-3.7l1.4,0.5
			c-0.7,1.3-1.7,2.7-2.4,3.6L794,251.3z"/>
		<path class="st7" d="M805.6,250l1.6-2.1c1.2,1.2,2.7,2.3,4.9,2.3c2.3,0,3.9-1.3,3.9-3.4c0-2.3-1.5-3.8-6.1-3.8v-2.4
			c4.1,0,5.4-1.5,5.4-3.6c0-1.8-1.2-3-3.2-3c-1.6,0-2.9,0.8-4.1,2l-1.7-2c1.6-1.5,3.5-2.5,5.9-2.5c3.7,0,6.3,1.9,6.3,5.3
			c0,2.4-1.4,4-3.6,4.8v0.1c2.4,0.6,4.3,2.4,4.3,5.2c0,3.7-3.1,5.9-6.9,5.9C809.1,252.9,807,251.6,805.6,250z"/>
		<path class="st7" d="M822.1,242.1c0-7.1,2.6-10.6,6.7-10.6c4,0,6.7,3.5,6.7,10.6c0,7.2-2.6,10.8-6.7,10.8
			C824.7,252.9,822.1,249.3,822.1,242.1z M832.4,242.1c0-5.9-1.5-8.1-3.6-8.1c-2.1,0-3.6,2.2-3.6,8.1c0,6,1.5,8.2,3.6,8.2
			C830.9,250.3,832.4,248.1,832.4,242.1z"/>
		<path class="st7" d="M838.1,242.1c0-7.1,2.6-10.6,6.7-10.6c4,0,6.7,3.5,6.7,10.6c0,7.2-2.6,10.8-6.7,10.8
			C840.7,252.9,838.1,249.3,838.1,242.1z M848.3,242.1c0-5.9-1.5-8.1-3.6-8.1c-2.1,0-3.6,2.2-3.6,8.1c0,6,1.5,8.2,3.6,8.2
			C846.8,250.3,848.3,248.1,848.3,242.1z"/>
		<path class="st7" d="M862.1,238.7c0,1.3-0.1,2.7-0.2,4.1h8.9c0,0,0,0.5,0,0.7c-0.4,6.4-0.7,8.8-1.5,9.7c-0.5,0.5-0.9,0.7-1.7,0.7
			c-0.8,0.1-2.1,0-3.5-0.1c0-0.4-0.2-1-0.5-1.5c1.5,0.2,2.9,0.2,3.5,0.2c0.5,0,0.7,0,0.9-0.3c0.6-0.5,0.9-2.7,1.2-8h-7.5
			c-0.6,3.9-2.1,7.6-6,9.8c-0.2-0.4-0.7-0.9-1.1-1.2c5.5-2.9,5.8-9.1,5.9-14.2h-5.4v-1.4h17.4v1.4H862.1z"/>
		<path class="st7" d="M892.1,252.1c0,1-0.2,1.4-0.9,1.7c-0.7,0.2-1.8,0.3-3.6,0.3c-0.1-0.4-0.3-1.1-0.6-1.5c1.4,0.1,2.7,0,3,0
			c0.4,0,0.5-0.1,0.5-0.5v-6.1h-13.4v8.1h-1.5v-16.9h16.4V252.1z M877.2,244.4h5.9v-5.9h-5.9V244.4z M890.6,244.4v-5.9h-6.1v5.9
			H890.6z"/>
	</g>
</g>
</svg>
